<svg width="16" height="16" viewBox="0 0 16 16" fill="none" xmlns="http://www.w3.org/2000/svg">
<path d="M15.9483 13.9515L14.868 10.1461V1.8604C14.868 1.54433 14.6126 1.28897 14.2966 1.28897H1.72513C1.40906 1.28897 1.1537 1.54433 1.1537 1.8604V10.1461L0.0733458 13.9515C-0.0605827 14.3247 0.214417 14.7175 0.610846 14.7175H15.4108C15.8073 14.7175 16.0823 14.3247 15.9483 13.9515ZM2.43942 2.57469H13.5823V9.62826H2.43942V2.57469ZM6.5162 13.4318L6.66085 12.7711H9.34477L9.48942 13.4318H6.5162ZM10.5162 13.4318L10.1751 11.8836C10.1608 11.8175 10.1019 11.7711 10.0358 11.7711H5.97156C5.9037 11.7711 5.84656 11.8175 5.83227 11.8836L5.4912 13.4318H1.55727L2.31263 10.7711H13.7091L14.4644 13.4318H10.5162Z" fill="black" fill-opacity="0.88"/>
</svg>
