<svg width="14" height="14" viewBox="0 0 14 14" fill="none" xmlns="http://www.w3.org/2000/svg">
<path d="M11.9998 0H3.62476C3.55601 0 3.49976 0.05625 3.49976 0.125V1C3.49976 1.06875 3.55601 1.125 3.62476 1.125H11.3748V11.875C11.3748 11.9438 11.431 12 11.4998 12H12.3748C12.4435 12 12.4998 11.9438 12.4998 11.875V0.5C12.4998 0.223437 12.2763 0 11.9998 0ZM9.99976 2H1.99976C1.72319 2 1.49976 2.22344 1.49976 2.5V10.7922C1.49976 10.925 1.55288 11.0516 1.64663 11.1453L4.35444 13.8531C4.38882 13.8875 4.42788 13.9156 4.47007 13.9391V13.9688H4.53569C4.59038 13.9891 4.64819 14 4.70757 14H9.99976C10.2763 14 10.4998 13.7766 10.4998 13.5V2.5C10.4998 2.22344 10.2763 2 9.99976 2ZM4.46851 12.3781L3.12319 11.0312H4.46851V12.3781ZM9.37476 12.875H5.46851V10.6562C5.46851 10.3109 5.18882 10.0312 4.84351 10.0312H2.62476V3.125H9.37476V12.875Z" fill="black" fill-opacity="0.45"/>
</svg>
