<svg width="15" height="15" viewBox="0 0 15 15" fill="none" xmlns="http://www.w3.org/2000/svg">
<path d="M12.7179 10.4986C12.2709 10.0513 11.7487 9.68621 11.175 9.42006C11.984 8.76471 12.5 7.76471 12.5 6.64328C12.5 4.66471 10.85 3.04149 8.87147 3.07185C6.92326 3.10221 5.35362 4.68971 5.35362 6.64328C5.35362 7.76471 5.87147 8.76471 6.67862 9.42006C6.10488 9.68601 5.58258 10.0511 5.13576 10.4986C4.16076 11.4754 3.60719 12.7647 3.57147 14.1397C3.571 14.1588 3.57434 14.1777 3.58131 14.1955C3.58827 14.2132 3.59872 14.2294 3.61203 14.243C3.62534 14.2567 3.64125 14.2675 3.65882 14.2749C3.67639 14.2823 3.69527 14.2861 3.71433 14.2861H4.71433C4.79112 14.2861 4.8554 14.2254 4.85719 14.1486C4.89112 13.1129 5.31076 12.1433 6.04826 11.4076C6.42565 11.0282 6.87454 10.7274 7.36896 10.5226C7.86337 10.3179 8.39349 10.2132 8.92862 10.2147C10.0161 10.2147 11.0393 10.6379 11.809 11.4076C12.5447 12.1433 12.9643 13.1129 13 14.1486C13.0018 14.2254 13.0661 14.2861 13.1429 14.2861H14.1429C14.162 14.2861 14.1808 14.2823 14.1984 14.2749C14.216 14.2675 14.2319 14.2567 14.2452 14.243C14.2585 14.2294 14.269 14.2132 14.2759 14.1955C14.2829 14.1777 14.2862 14.1588 14.2858 14.1397C14.25 12.7647 13.6965 11.4754 12.7179 10.4986ZM8.92862 8.92899C8.3179 8.92899 7.7429 8.69149 7.31254 8.25935C7.09657 8.04507 6.92597 7.78949 6.81091 7.50785C6.69586 7.2262 6.63872 6.92427 6.6429 6.62006C6.64826 6.03435 6.88219 5.46828 7.29112 5.04863C7.71969 4.60935 8.2929 4.36471 8.9054 4.35756C9.51076 4.35221 10.0983 4.58792 10.5304 5.01113C10.9733 5.44506 11.2161 6.02542 11.2161 6.64328C11.2161 7.25399 10.9786 7.82721 10.5465 8.25935C10.3345 8.47238 10.0823 8.64125 9.80461 8.75619C9.5269 8.87113 9.22917 8.92987 8.92862 8.92899ZM4.4554 7.11471C4.43933 6.95935 4.4304 6.80221 4.4304 6.64328C4.4304 6.35935 4.45719 6.08256 4.50719 5.81292C4.51969 5.74863 4.48576 5.68256 4.42683 5.65578C4.18397 5.54685 3.96076 5.39685 3.7679 5.20756C3.54065 4.98722 3.36183 4.72192 3.24284 4.4286C3.12385 4.13528 3.06731 3.82038 3.07683 3.50399C3.0929 2.93078 3.32326 2.38613 3.72504 1.97542C4.16612 1.52363 4.75897 1.2772 5.38933 1.28435C5.95897 1.2897 6.50897 1.50935 6.92505 1.89863C7.06612 2.03078 7.18755 2.17721 7.28933 2.33435C7.32505 2.38971 7.39469 2.41292 7.4554 2.39149C7.76969 2.28256 8.10183 2.20578 8.4429 2.17006C8.5429 2.15935 8.60004 2.0522 8.5554 1.96292C7.97504 0.814705 6.78933 0.0218476 5.4179 0.000418995C3.43754 -0.0299382 1.78754 1.59328 1.78754 3.57006C1.78754 4.69149 2.30362 5.69149 3.11254 6.34685C2.54469 6.60935 2.02147 6.97185 1.5679 7.42542C0.58933 8.40221 0.0357589 9.69149 4.46536e-05 11.0683C-0.000431963 11.0873 0.00291094 11.1063 0.00987649 11.124C0.016842 11.1418 0.0272892 11.158 0.0406025 11.1716C0.0539158 11.1853 0.0698259 11.1961 0.0873951 11.2035C0.104964 11.2109 0.123837 11.2147 0.142902 11.2147H1.14469C1.22147 11.2147 1.28576 11.154 1.28754 11.0772C1.32147 10.0415 1.74112 9.07185 2.47862 8.33613C3.00362 7.81113 3.64647 7.44685 4.34826 7.27006C4.4179 7.25221 4.46433 7.18613 4.4554 7.11471Z" fill="black" fill-opacity="0.88"/>
</svg>
