<svg width="14" height="14" viewBox="0 0 14 14" fill="none" xmlns="http://www.w3.org/2000/svg">
<g clip-path="url(#clip0_371_1233)">
<path d="M3.02632 10.7486C3.05757 10.7486 3.08882 10.7454 3.12007 10.7408L5.74819 10.2798C5.77944 10.2736 5.80913 10.2595 5.83101 10.2361L12.4544 3.61263C12.4689 3.59817 12.4804 3.581 12.4883 3.5621C12.4961 3.5432 12.5001 3.52294 12.5001 3.50247C12.5001 3.48201 12.4961 3.46175 12.4883 3.44284C12.4804 3.42394 12.4689 3.40677 12.4544 3.39232L9.85757 0.793878C9.82788 0.764191 9.78882 0.748566 9.74663 0.748566C9.70444 0.748566 9.66538 0.764191 9.63569 0.793878L3.01226 7.41732C2.98882 7.44075 2.97476 7.46888 2.96851 7.50013L2.50757 10.1283C2.49237 10.212 2.4978 10.2981 2.52339 10.3792C2.54898 10.4604 2.59397 10.534 2.65444 10.5939C2.75757 10.6939 2.88726 10.7486 3.02632 10.7486V10.7486ZM4.07944 8.02357L9.74663 2.35794L10.8919 3.50325L5.22476 9.16888L3.83569 9.41419L4.07944 8.02357V8.02357ZM12.7498 12.0611H1.24976C0.973193 12.0611 0.749756 12.2845 0.749756 12.5611V13.1236C0.749756 13.1923 0.806006 13.2486 0.874756 13.2486H13.1248C13.1935 13.2486 13.2498 13.1923 13.2498 13.1236V12.5611C13.2498 12.2845 13.0263 12.0611 12.7498 12.0611Z" fill="black" fill-opacity="0.45"/>
</g>
<defs>
<clipPath id="clip0_371_1233">
<rect width="14" height="14" fill="white"/>
</clipPath>
</defs>
</svg>
