<svg width="16" height="16" viewBox="0 0 16 16" fill="none" xmlns="http://www.w3.org/2000/svg">
<path d="M15.2147 6.65714L14.6862 1.075C14.6594 0.785714 14.429 0.557143 14.1397 0.528571L8.55758 0H8.55044C8.49329 0 8.44865 0.0178572 8.41472 0.0517857L0.0522221 8.41429C0.0356679 8.43081 0.0225344 8.45043 0.0135734 8.47203C0.0046124 8.49364 0 8.51679 0 8.54018C0 8.56357 0.0046124 8.58672 0.0135734 8.60833C0.0225344 8.62993 0.0356679 8.64955 0.0522221 8.66607L6.54865 15.1625C6.58258 15.1964 6.62722 15.2143 6.67544 15.2143C6.72365 15.2143 6.76829 15.1964 6.80222 15.1625L15.1647 6.8C15.2004 6.7625 15.2183 6.71072 15.2147 6.65714ZM6.67365 13.3696L1.84508 8.54107L8.98258 1.40357L13.3933 1.82143L13.8112 6.23214L6.67365 13.3696ZM10.6076 3.03571C9.74151 3.03571 9.03615 3.74107 9.03615 4.60714C9.03615 5.47322 9.74151 6.17857 10.6076 6.17857C11.4737 6.17857 12.179 5.47322 12.179 4.60714C12.179 3.74107 11.4737 3.03571 10.6076 3.03571ZM10.6076 5.17857C10.2915 5.17857 10.0362 4.92321 10.0362 4.60714C10.0362 4.29107 10.2915 4.03572 10.6076 4.03572C10.9237 4.03572 11.179 4.29107 11.179 4.60714C11.179 4.92321 10.9237 5.17857 10.6076 5.17857Z" fill="black" fill-opacity="0.88"/>
</svg>
