<svg width="31" height="31" viewBox="0 0 31 31" fill="none" xmlns="http://www.w3.org/2000/svg">
<path d="M28.3118 2.54933C24.9127 -0.849777 19.4123 -0.849777 16.0172 2.54933L12.1239 6.44263L14.173 8.49174L18.0663 4.59844C20.2279 2.43683 23.8761 2.20781 26.2627 4.59844C28.6533 6.98906 28.4243 10.6333 26.2627 12.7949L22.3694 16.6882L24.4225 18.7413L28.3159 14.848C31.7069 11.4489 31.7069 5.94844 28.3118 2.54933ZM12.7989 26.2627C10.6373 28.4243 6.98906 28.6533 4.60246 26.2627C2.21183 23.8721 2.44085 20.2279 4.60246 18.0663L8.49576 14.173L6.44263 12.1199L2.54933 16.0132C-0.849777 19.4123 -0.849777 24.9127 2.54933 28.3078C5.94844 31.7029 11.4489 31.7069 14.844 28.3078L18.7373 24.4145L16.6882 22.3654L12.7989 26.2627ZM5.31763 3.27254C5.25722 3.21273 5.17564 3.17917 5.09063 3.17917C5.00561 3.17917 4.92403 3.21273 4.86362 3.27254L3.27254 4.86362C3.21273 4.92403 3.17917 5.00561 3.17917 5.09063C3.17917 5.17564 3.21273 5.25722 3.27254 5.31763L25.5475 27.5926C25.6721 27.7172 25.877 27.7172 26.0016 27.5926L27.5926 26.0016C27.7172 25.877 27.7172 25.6721 27.5926 25.5475L5.31763 3.27254Z" fill="black" fill-opacity="0.45"/>
</svg>
