<svg width="13" height="13" viewBox="0 0 13 13" fill="none" xmlns="http://www.w3.org/2000/svg">
<path d="M6.67815 0H5.60672C5.51149 0 5.46387 0.047619 5.46387 0.142857V5.75H0.142857C0.0476191 5.75 0 5.79762 0 5.89286V6.96429C0 7.05952 0.0476191 7.10714 0.142857 7.10714H5.46387V12.7143C5.46387 12.8095 5.51149 12.8571 5.60672 12.8571H6.67815C6.77339 12.8571 6.82101 12.8095 6.82101 12.7143V7.10714H12.1429C12.2381 7.10714 12.2857 7.05952 12.2857 6.96429V5.89286C12.2857 5.79762 12.2381 5.75 12.1429 5.75H6.82101V0.142857C6.82101 0.047619 6.77339 0 6.67815 0Z" fill="white"/>
</svg>
