<svg width="13" height="16" viewBox="0 0 13 16" fill="none" xmlns="http://www.w3.org/2000/svg">
<path d="M12 0H0.571429C0.255357 0 0 0.255357 0 0.571429V15.4286C0 15.7446 0.255357 16 0.571429 16H12C12.3161 16 12.5714 15.7446 12.5714 15.4286V0.571429C12.5714 0.255357 12.3161 0 12 0ZM7.35714 1.28571H9.07143V5.03393L8.24107 4.42857L7.35714 5.06071V1.28571ZM11.2857 14.7143H1.28571V1.28571H6.28572V6.5875C6.28572 6.64643 6.30357 6.70536 6.33929 6.75357C6.36097 6.78422 6.38851 6.81026 6.42032 6.83019C6.45213 6.85013 6.48757 6.86355 6.52461 6.8697C6.56164 6.87584 6.59952 6.87458 6.63607 6.86599C6.67261 6.8574 6.70709 6.84165 6.7375 6.81964L8.23393 5.75L9.6875 6.81071C9.73572 6.84643 9.79464 6.86607 9.85536 6.86607C10.0125 6.86607 10.1411 6.7375 10.1411 6.58036V1.28571H11.2839V14.7143H11.2857Z" fill="black" fill-opacity="0.88"/>
</svg>
