<svg width="16" height="16" viewBox="0 0 16 16" fill="none" xmlns="http://www.w3.org/2000/svg">
<g clip-path="url(#clip0_642_1610)">
<path d="M15.1 14.1161L10.4625 9.47858C11.1822 8.54822 11.5715 7.41072 11.5715 6.21429C11.5715 4.78215 11.0125 3.43929 10.0018 2.42679C8.99111 1.41429 7.64468 0.857147 6.21432 0.857147C4.78396 0.857147 3.43753 1.41608 2.42682 2.42679C1.41432 3.4375 0.857178 4.78215 0.857178 6.21429C0.857178 7.64465 1.41611 8.99108 2.42682 10.0018C3.43753 11.0143 4.78218 11.5714 6.21432 11.5714C7.41075 11.5714 8.54646 11.1821 9.47682 10.4643L14.1143 15.1C14.1279 15.1136 14.1441 15.1244 14.1618 15.1318C14.1796 15.1391 14.1987 15.1429 14.2179 15.1429C14.2371 15.1429 14.2562 15.1391 14.2739 15.1318C14.2917 15.1244 14.3079 15.1136 14.3215 15.1L15.1 14.3232C15.1136 14.3096 15.1244 14.2935 15.1318 14.2757C15.1392 14.2579 15.143 14.2389 15.143 14.2196C15.143 14.2004 15.1392 14.1814 15.1318 14.1636C15.1244 14.1458 15.1136 14.1297 15.1 14.1161ZM9.04289 9.04286C8.28575 9.79822 7.28218 10.2143 6.21432 10.2143C5.14646 10.2143 4.14289 9.79822 3.38575 9.04286C2.63039 8.28572 2.21432 7.28215 2.21432 6.21429C2.21432 5.14643 2.63039 4.14108 3.38575 3.38572C4.14289 2.63036 5.14646 2.21429 6.21432 2.21429C7.28218 2.21429 8.28754 2.62858 9.04289 3.38572C9.79825 4.14286 10.2143 5.14643 10.2143 6.21429C10.2143 7.28215 9.79825 8.28751 9.04289 9.04286Z" fill="black" fill-opacity="0.45"/>
</g>
<defs>
<clipPath id="clip0_642_1610">
<rect width="16" height="16" fill="white"/>
</clipPath>
</defs>
</svg>
