<svg width="16" height="16" viewBox="0 0 16 16" fill="none" xmlns="http://www.w3.org/2000/svg">
<path d="M14.9464 10.033L13.7768 9.03304C13.8321 8.69375 13.8607 8.34732 13.8607 8.00089C13.8607 7.65446 13.8321 7.30804 13.7768 6.96875L14.9464 5.96875C15.0347 5.89323 15.0978 5.79264 15.1275 5.68035C15.1571 5.56807 15.1519 5.44942 15.1125 5.34018L15.0964 5.29375C14.7744 4.3938 14.2923 3.55953 13.6732 2.83125L13.6411 2.79375C13.566 2.70545 13.4659 2.64198 13.354 2.61169C13.2421 2.58141 13.1237 2.58574 13.0143 2.62411L11.5625 3.14018C11.0268 2.70089 10.4286 2.35446 9.78215 2.11161L9.50179 0.59375C9.48064 0.47954 9.42523 0.374469 9.34294 0.292496C9.26065 0.210524 9.15537 0.15553 9.04107 0.134821L8.99286 0.125893C8.0625 -0.0419643 7.08393 -0.0419643 6.15357 0.125893L6.10536 0.134821C5.99107 0.15553 5.88578 0.210524 5.80349 0.292496C5.7212 0.374469 5.6658 0.47954 5.64465 0.59375L5.3625 2.11875C4.72123 2.36166 4.12405 2.7079 3.59465 3.14375L2.13215 2.62411C2.0228 2.58543 1.90427 2.58095 1.79232 2.61125C1.68036 2.64155 1.58027 2.7052 1.50536 2.79375L1.47322 2.83125C0.854908 3.56004 0.372818 4.39417 0.0500036 5.29375L0.0339322 5.34018C-0.046425 5.56339 0.0196465 5.81339 0.200004 5.96875L1.38393 6.97946C1.32858 7.31518 1.30179 7.65804 1.30179 7.99911C1.30179 8.34196 1.32858 8.68482 1.38393 9.01875L0.200004 10.0295C0.111782 10.105 0.0486401 10.2056 0.018975 10.3179C-0.0106901 10.4301 -0.00547322 10.5488 0.0339322 10.658L0.0500036 10.7045C0.373218 11.6045 0.851789 12.4348 1.47322 13.167L1.50536 13.2045C1.58046 13.2928 1.68055 13.3562 1.79244 13.3865C1.90433 13.4168 2.02277 13.4125 2.13215 13.3741L3.59465 12.8545C4.12679 13.292 4.72143 13.6384 5.3625 13.8795L5.64465 15.4045C5.6658 15.5187 5.7212 15.6237 5.80349 15.7057C5.88578 15.7877 5.99107 15.8427 6.10536 15.8634L6.15357 15.8723C7.09248 16.0411 8.05396 16.0411 8.99286 15.8723L9.04107 15.8634C9.15537 15.8427 9.26065 15.7877 9.34294 15.7057C9.42523 15.6237 9.48064 15.5187 9.50179 15.4045L9.78215 13.8866C10.4283 13.6444 11.0299 13.2968 11.5625 12.858L13.0143 13.3741C13.1236 13.4128 13.2422 13.4173 13.3541 13.387C13.4661 13.3567 13.5662 13.293 13.6411 13.2045L13.6732 13.167C14.2946 12.433 14.7732 11.6045 15.0964 10.7045L15.1125 10.658C15.1929 10.4384 15.1268 10.1884 14.9464 10.033ZM12.5089 7.17946C12.5536 7.44911 12.5768 7.72589 12.5768 8.00268C12.5768 8.27946 12.5536 8.55625 12.5089 8.82589L12.3911 9.54197L13.725 10.683C13.5228 11.1489 13.2675 11.5899 12.9643 11.9973L11.3071 11.4098L10.7464 11.8705C10.3196 12.2205 9.84465 12.4955 9.33036 12.6884L8.65 12.9438L8.33036 14.6759C7.82602 14.733 7.31684 14.733 6.8125 14.6759L6.49286 12.9402L5.81786 12.6813C5.30893 12.4884 4.83572 12.2134 4.4125 11.8652L3.85179 11.4027L2.18393 11.9955C1.88036 11.5866 1.62679 11.1455 1.42322 10.6813L2.77143 9.52946L2.65536 8.81518C2.6125 8.54911 2.58929 8.27411 2.58929 8.00268C2.58929 7.72946 2.61072 7.45625 2.65536 7.19018L2.77143 6.47589L1.42322 5.32411C1.625 4.85804 1.88036 4.41875 2.18393 4.00982L3.85179 4.60268L4.4125 4.14018C4.83572 3.79196 5.30893 3.51696 5.81786 3.32411L6.49465 3.06875L6.81429 1.33304C7.31607 1.27589 7.82857 1.27589 8.33215 1.33304L8.65179 3.06518L9.33215 3.32054C9.84465 3.51339 10.3214 3.78839 10.7482 4.13839L11.3089 4.59911L12.9661 4.01161C13.2696 4.42054 13.5232 4.86161 13.7268 5.32589L12.3929 6.46696L12.5089 7.17946ZM7.575 4.68125C5.83929 4.68125 4.43215 6.08839 4.43215 7.82411C4.43215 9.55982 5.83929 10.967 7.575 10.967C9.31072 10.967 10.7179 9.55982 10.7179 7.82411C10.7179 6.08839 9.31072 4.68125 7.575 4.68125ZM8.98929 9.23839C8.80379 9.42442 8.58334 9.57194 8.34063 9.67246C8.09791 9.77298 7.83771 9.82452 7.575 9.82411C7.04107 9.82411 6.53929 9.61518 6.16072 9.23839C5.97469 9.0529 5.82717 8.83245 5.72665 8.58973C5.62613 8.34701 5.57459 8.08682 5.575 7.82411C5.575 7.29018 5.78393 6.78839 6.16072 6.40982C6.53929 6.03125 7.04107 5.82411 7.575 5.82411C8.10893 5.82411 8.61072 6.03125 8.98929 6.40982C9.17532 6.59532 9.32284 6.81577 9.42336 7.05848C9.52388 7.3012 9.57541 7.5614 9.575 7.82411C9.575 8.35804 9.36607 8.85982 8.98929 9.23839Z" fill="black" fill-opacity="0.88"/>
</svg>
