<svg width="16" height="16" viewBox="0 0 16 16" fill="none" xmlns="http://www.w3.org/2000/svg">
<path d="M15.7599 7.52237L8.85989 0.625938L8.39739 0.163438C8.29201 0.0587532 8.1495 0 8.00097 0C7.85243 0 7.70992 0.0587532 7.60454 0.163438L0.242038 7.52237C0.134058 7.62993 0.0487196 7.75803 -0.00894006 7.89911C-0.0665997 8.04019 -0.0954118 8.19139 -0.093676 8.34379C-0.0865331 8.97237 0.436681 9.47415 1.06525 9.47415H1.82418V15.2902H14.1778V9.47415H14.9528C15.2581 9.47415 15.5456 9.35451 15.7617 9.13844C15.8681 9.03239 15.9524 8.90628 16.0097 8.76743C16.067 8.62857 16.0962 8.47973 16.0956 8.32951C16.0956 8.02594 15.976 7.73844 15.7599 7.52237ZM9.00097 14.0045H7.00097V10.3617H9.00097V14.0045ZM12.892 8.18844V14.0045H10.1438V9.93308C10.1438 9.53844 9.82418 9.21879 9.42954 9.21879H6.57239C6.17775 9.21879 5.85811 9.53844 5.85811 9.93308V14.0045H3.10989V8.18844H1.39561L8.00275 1.58665L8.41525 1.99915L14.6081 8.18844H12.892Z" fill="black" fill-opacity="0.88"/>
</svg>
